<mxfile host="app.diagrams.net" agent="Mozilla/5.0 (Windows NT 10.0; Win64; x64; rv:144.0) Gecko/20100101 Firefox/144.0" version="28.2.8">
  <diagram name="Страница — 1" id="jR6FColE7d-BJVLjcg3X">
    <mxGraphModel dx="1426" dy="759" grid="0" gridSize="10" guides="1" tooltips="1" connect="1" arrows="1" fold="1" page="1" pageScale="1" pageWidth="827" pageHeight="1169" math="0" shadow="0">
      <root>
        <mxCell id="0" />
        <mxCell id="1" parent="0" />
        <mxCell id="5QiBK-Bls3Wu91XyoAU1-1" value="Администратор" style="shape=umlActor;verticalLabelPosition=bottom;verticalAlign=top;html=1;outlineConnect=0;" parent="1" vertex="1">
          <mxGeometry x="182" y="495" width="30" height="60" as="geometry" />
        </mxCell>
        <mxCell id="5QiBK-Bls3Wu91XyoAU1-10" style="edgeStyle=orthogonalEdgeStyle;rounded=0;orthogonalLoop=1;jettySize=auto;html=1;exitX=0.5;exitY=0;exitDx=0;exitDy=0;exitPerimeter=0;endArrow=block;endFill=0;endSize=10;" parent="1" source="5QiBK-Bls3Wu91XyoAU1-2" edge="1">
          <mxGeometry relative="1" as="geometry">
            <mxPoint x="196.85714285714278" y="257" as="targetPoint" />
          </mxGeometry>
        </mxCell>
        <mxCell id="5QiBK-Bls3Wu91XyoAU1-2" value="Менеджер" style="shape=umlActor;verticalLabelPosition=bottom;verticalAlign=top;html=1;outlineConnect=0;" parent="1" vertex="1">
          <mxGeometry x="182" y="332" width="30" height="60" as="geometry" />
        </mxCell>
        <mxCell id="SzwQVhJ9KzG1dN1OcYij-5" style="edgeStyle=orthogonalEdgeStyle;rounded=0;orthogonalLoop=1;jettySize=auto;html=1;exitX=0.5;exitY=0;exitDx=0;exitDy=0;exitPerimeter=0;endArrow=block;endFill=0;endSize=10;" edge="1" parent="1" source="5QiBK-Bls3Wu91XyoAU1-5">
          <mxGeometry relative="1" as="geometry">
            <mxPoint x="197" y="148.72413793103453" as="targetPoint" />
          </mxGeometry>
        </mxCell>
        <mxCell id="5QiBK-Bls3Wu91XyoAU1-5" value="Пользователь" style="shape=umlActor;verticalLabelPosition=bottom;verticalAlign=top;html=1;outlineConnect=0;" parent="1" vertex="1">
          <mxGeometry x="182" y="174" width="30" height="60" as="geometry" />
        </mxCell>
        <mxCell id="5QiBK-Bls3Wu91XyoAU1-11" style="edgeStyle=orthogonalEdgeStyle;rounded=0;orthogonalLoop=1;jettySize=auto;html=1;exitX=0.5;exitY=0;exitDx=0;exitDy=0;exitPerimeter=0;endArrow=block;endFill=0;endSize=10;" parent="1" source="5QiBK-Bls3Wu91XyoAU1-1" edge="1">
          <mxGeometry relative="1" as="geometry">
            <mxPoint x="196.7" y="410" as="targetPoint" />
            <mxPoint x="196.8428571428572" y="485" as="sourcePoint" />
          </mxGeometry>
        </mxCell>
        <mxCell id="5QiBK-Bls3Wu91XyoAU1-12" value="Просмотр расиспания" style="ellipse;whiteSpace=wrap;html=1;" parent="1" vertex="1">
          <mxGeometry x="283" y="174" width="120" height="60" as="geometry" />
        </mxCell>
        <mxCell id="5QiBK-Bls3Wu91XyoAU1-14" value="" style="endArrow=none;html=1;rounded=0;entryX=0;entryY=0.5;entryDx=0;entryDy=0;" parent="1" target="5QiBK-Bls3Wu91XyoAU1-12" edge="1">
          <mxGeometry width="50" height="50" relative="1" as="geometry">
            <mxPoint x="217" y="204" as="sourcePoint" />
            <mxPoint x="307" y="184" as="targetPoint" />
          </mxGeometry>
        </mxCell>
        <mxCell id="5QiBK-Bls3Wu91XyoAU1-15" value="Редактирование расписания" style="ellipse;whiteSpace=wrap;html=1;" parent="1" vertex="1">
          <mxGeometry x="278" y="301" width="120" height="59" as="geometry" />
        </mxCell>
        <mxCell id="5QiBK-Bls3Wu91XyoAU1-16" value="" style="endArrow=none;html=1;rounded=0;entryX=0;entryY=0.5;entryDx=0;entryDy=0;" parent="1" target="5QiBK-Bls3Wu91XyoAU1-15" edge="1">
          <mxGeometry width="50" height="50" relative="1" as="geometry">
            <mxPoint x="214" y="362" as="sourcePoint" />
            <mxPoint x="283" y="332" as="targetPoint" />
          </mxGeometry>
        </mxCell>
        <mxCell id="5QiBK-Bls3Wu91XyoAU1-22" style="rounded=0;orthogonalLoop=1;jettySize=auto;html=1;exitX=0;exitY=0.5;exitDx=0;exitDy=0;entryX=1;entryY=0;entryDx=0;entryDy=0;strokeColor=default;endArrow=block;endFill=0;endSize=10;" parent="1" source="5QiBK-Bls3Wu91XyoAU1-17" target="5QiBK-Bls3Wu91XyoAU1-15" edge="1">
          <mxGeometry relative="1" as="geometry" />
        </mxCell>
        <mxCell id="5QiBK-Bls3Wu91XyoAU1-17" value="Добавление расписания" style="ellipse;whiteSpace=wrap;html=1;" parent="1" vertex="1">
          <mxGeometry x="419" y="232" width="120" height="60" as="geometry" />
        </mxCell>
        <mxCell id="5QiBK-Bls3Wu91XyoAU1-23" style="edgeStyle=orthogonalEdgeStyle;rounded=0;orthogonalLoop=1;jettySize=auto;html=1;exitX=0;exitY=0.5;exitDx=0;exitDy=0;endSize=10;endArrow=block;endFill=0;entryX=1;entryY=0.5;entryDx=0;entryDy=0;" parent="1" source="5QiBK-Bls3Wu91XyoAU1-18" target="5QiBK-Bls3Wu91XyoAU1-15" edge="1">
          <mxGeometry relative="1" as="geometry">
            <mxPoint x="435.1724137931035" y="362.2413793103449" as="targetPoint" />
          </mxGeometry>
        </mxCell>
        <mxCell id="5QiBK-Bls3Wu91XyoAU1-18" value="Удаление расписания" style="ellipse;whiteSpace=wrap;html=1;" parent="1" vertex="1">
          <mxGeometry x="442" y="300" width="120" height="60" as="geometry" />
        </mxCell>
        <mxCell id="5QiBK-Bls3Wu91XyoAU1-24" style="rounded=0;orthogonalLoop=1;jettySize=auto;html=1;exitX=0;exitY=0.5;exitDx=0;exitDy=0;entryX=1;entryY=1;entryDx=0;entryDy=0;endSize=10;endArrow=block;endFill=0;" parent="1" source="5QiBK-Bls3Wu91XyoAU1-19" target="5QiBK-Bls3Wu91XyoAU1-15" edge="1">
          <mxGeometry relative="1" as="geometry" />
        </mxCell>
        <mxCell id="5QiBK-Bls3Wu91XyoAU1-19" value="Изменение расписания" style="ellipse;whiteSpace=wrap;html=1;" parent="1" vertex="1">
          <mxGeometry x="436" y="364" width="120" height="60" as="geometry" />
        </mxCell>
        <mxCell id="5QiBK-Bls3Wu91XyoAU1-25" value="Просмотр информации о пользователях" style="ellipse;whiteSpace=wrap;html=1;" parent="1" vertex="1">
          <mxGeometry x="287" y="495" width="120" height="60" as="geometry" />
        </mxCell>
        <mxCell id="5QiBK-Bls3Wu91XyoAU1-26" value="Экспортирование расписания" style="ellipse;whiteSpace=wrap;html=1;" parent="1" vertex="1">
          <mxGeometry x="278" y="373" width="120" height="60" as="geometry" />
        </mxCell>
        <mxCell id="5QiBK-Bls3Wu91XyoAU1-27" value="" style="endArrow=none;html=1;rounded=0;entryX=0;entryY=0.5;entryDx=0;entryDy=0;" parent="1" target="5QiBK-Bls3Wu91XyoAU1-26" edge="1">
          <mxGeometry width="50" height="50" relative="1" as="geometry">
            <mxPoint x="214" y="366" as="sourcePoint" />
            <mxPoint x="276" y="364" as="targetPoint" />
          </mxGeometry>
        </mxCell>
        <mxCell id="5QiBK-Bls3Wu91XyoAU1-28" value="" style="endArrow=none;html=1;rounded=0;entryX=0;entryY=0.5;entryDx=0;entryDy=0;" parent="1" target="5QiBK-Bls3Wu91XyoAU1-25" edge="1">
          <mxGeometry width="50" height="50" relative="1" as="geometry">
            <mxPoint x="214" y="525" as="sourcePoint" />
            <mxPoint x="278" y="492" as="targetPoint" />
          </mxGeometry>
        </mxCell>
        <mxCell id="5QiBK-Bls3Wu91XyoAU1-32" style="rounded=0;orthogonalLoop=1;jettySize=auto;html=1;exitX=0;exitY=0.5;exitDx=0;exitDy=0;entryX=1;entryY=0;entryDx=0;entryDy=0;dashed=1;dashPattern=12 12;" parent="1" source="5QiBK-Bls3Wu91XyoAU1-29" target="5QiBK-Bls3Wu91XyoAU1-25" edge="1">
          <mxGeometry relative="1" as="geometry" />
        </mxCell>
        <mxCell id="5QiBK-Bls3Wu91XyoAU1-34" value="&amp;lt;&amp;lt;extend&amp;gt;&amp;gt;" style="edgeLabel;html=1;align=center;verticalAlign=middle;resizable=0;points=[];" parent="5QiBK-Bls3Wu91XyoAU1-32" vertex="1" connectable="0">
          <mxGeometry x="-0.0751" y="2" relative="1" as="geometry">
            <mxPoint as="offset" />
          </mxGeometry>
        </mxCell>
        <mxCell id="5QiBK-Bls3Wu91XyoAU1-29" value="Добавление нового пользователя" style="ellipse;whiteSpace=wrap;html=1;" parent="1" vertex="1">
          <mxGeometry x="489" y="431" width="120" height="60" as="geometry" />
        </mxCell>
        <mxCell id="5QiBK-Bls3Wu91XyoAU1-35" style="edgeStyle=orthogonalEdgeStyle;rounded=0;orthogonalLoop=1;jettySize=auto;html=1;exitX=0;exitY=0.5;exitDx=0;exitDy=0;entryX=1;entryY=0.5;entryDx=0;entryDy=0;dashed=1;dashPattern=12 12;" parent="1" source="5QiBK-Bls3Wu91XyoAU1-30" target="5QiBK-Bls3Wu91XyoAU1-25" edge="1">
          <mxGeometry relative="1" as="geometry" />
        </mxCell>
        <mxCell id="5QiBK-Bls3Wu91XyoAU1-36" value="&amp;lt;&amp;lt;extend&amp;gt;&amp;gt;" style="edgeLabel;html=1;align=center;verticalAlign=bottom;resizable=0;points=[];labelPosition=center;verticalLabelPosition=top;" parent="5QiBK-Bls3Wu91XyoAU1-35" vertex="1" connectable="0">
          <mxGeometry x="-0.2633" y="2" relative="1" as="geometry">
            <mxPoint as="offset" />
          </mxGeometry>
        </mxCell>
        <mxCell id="5QiBK-Bls3Wu91XyoAU1-30" value="Изменение информации о пользователе" style="ellipse;whiteSpace=wrap;html=1;" parent="1" vertex="1">
          <mxGeometry x="520" y="495" width="120" height="60" as="geometry" />
        </mxCell>
        <mxCell id="5QiBK-Bls3Wu91XyoAU1-37" style="rounded=0;orthogonalLoop=1;jettySize=auto;html=1;exitX=0;exitY=0.5;exitDx=0;exitDy=0;entryX=1;entryY=1;entryDx=0;entryDy=0;dashed=1;dashPattern=12 12;" parent="1" source="5QiBK-Bls3Wu91XyoAU1-31" target="5QiBK-Bls3Wu91XyoAU1-25" edge="1">
          <mxGeometry relative="1" as="geometry" />
        </mxCell>
        <mxCell id="5QiBK-Bls3Wu91XyoAU1-38" value="&amp;lt;&amp;lt;extend&amp;gt;&amp;gt;" style="edgeLabel;html=1;align=center;verticalAlign=middle;resizable=0;points=[];" parent="5QiBK-Bls3Wu91XyoAU1-37" vertex="1" connectable="0">
          <mxGeometry x="0.0451" relative="1" as="geometry">
            <mxPoint as="offset" />
          </mxGeometry>
        </mxCell>
        <mxCell id="5QiBK-Bls3Wu91XyoAU1-31" value="Удалить пользователя" style="ellipse;whiteSpace=wrap;html=1;" parent="1" vertex="1">
          <mxGeometry x="476" y="563" width="120" height="60" as="geometry" />
        </mxCell>
        <mxCell id="SzwQVhJ9KzG1dN1OcYij-1" value="Неавторизованный пользователь" style="shape=umlActor;verticalLabelPosition=bottom;verticalAlign=top;html=1;outlineConnect=0;" vertex="1" parent="1">
          <mxGeometry x="182" y="63" width="30" height="60" as="geometry" />
        </mxCell>
        <mxCell id="SzwQVhJ9KzG1dN1OcYij-3" value="Авторизоваться" style="ellipse;whiteSpace=wrap;html=1;" vertex="1" parent="1">
          <mxGeometry x="313" y="68" width="120" height="50" as="geometry" />
        </mxCell>
        <mxCell id="SzwQVhJ9KzG1dN1OcYij-4" value="" style="endArrow=none;html=1;rounded=0;entryX=0;entryY=0.5;entryDx=0;entryDy=0;" edge="1" parent="1" target="SzwQVhJ9KzG1dN1OcYij-3">
          <mxGeometry width="50" height="50" relative="1" as="geometry">
            <mxPoint x="218" y="93" as="sourcePoint" />
            <mxPoint x="278" y="63" as="targetPoint" />
          </mxGeometry>
        </mxCell>
      </root>
    </mxGraphModel>
  </diagram>
</mxfile>
